<svg width="39" height="42" viewBox="0 0 39 42" fill="none" xmlns="http://www.w3.org/2000/svg">
<rect x="2" y="25.4557" width="35.5146" height="3.31332" rx="1.65666" transform="rotate(-40.1606 2 25.4557)" fill="#0756D6"/>
<rect x="0.984578" y="24.3088" width="30.0468" height="3.31332" rx="1.65666" transform="rotate(-0.825276 0.984578 24.3088)" fill="#0756D6"/>
<rect x="2.43886" y="3.54767" width="28.8285" height="3.31332" rx="1.65666" transform="rotate(-1.08855 2.43886 3.54767)" fill="#0756D6"/>
<path d="M4.23086 8.58047C6.39622 8.58047 8.15159 6.84388 8.15159 4.70169C8.15159 2.5595 6.39622 0.822906 4.23086 0.822906C2.06549 0.822906 0.31012 2.5595 0.31012 4.70169C0.31012 6.84388 2.06549 8.58047 4.23086 8.58047Z" fill="white"/>
<path d="M16.2309 8.58047C18.3962 8.58047 20.1516 6.84388 20.1516 4.70169C20.1516 2.5595 18.3962 0.822906 16.2309 0.822906C14.0655 0.822906 12.3101 2.5595 12.3101 4.70169C12.3101 6.84388 14.0655 8.58047 16.2309 8.58047Z" fill="white"/>
<path d="M28.2309 8.58047C30.3962 8.58047 32.1516 6.84388 32.1516 4.70169C32.1516 2.5595 30.3962 0.822906 28.2309 0.822906C26.0655 0.822906 24.3101 2.5595 24.3101 4.70169C24.3101 6.84388 26.0655 8.58047 28.2309 8.58047Z" fill="white"/>
<path d="M4.23086 29.5805C6.39622 29.5805 8.15159 27.8439 8.15159 25.7017C8.15159 23.5595 6.39622 21.8229 4.23086 21.8229C2.06549 21.8229 0.31012 23.5595 0.31012 25.7017C0.31012 27.8439 2.06549 29.5805 4.23086 29.5805Z" fill="white"/>
<path d="M16.2309 29.5805C18.3962 29.5805 20.1516 27.8439 20.1516 25.7017C20.1516 23.5595 18.3962 21.8229 16.2309 21.8229C14.0655 21.8229 12.3101 23.5595 12.3101 25.7017C12.3101 27.8439 14.0655 29.5805 16.2309 29.5805Z" fill="white"/>
<path d="M28.2309 29.5805C30.3962 29.5805 32.1516 27.8439 32.1516 25.7017C32.1516 23.5595 30.3962 21.8229 28.2309 21.8229C26.0655 21.8229 24.3101 23.5595 24.3101 25.7017C24.3101 27.8439 26.0655 29.5805 28.2309 29.5805Z" fill="white"/>
</svg>
